<svg width="399" height="302" viewBox="0 0 399 302" fill="none" xmlns="http://www.w3.org/2000/svg">
<path d="M86 147H396C396 147 386.721 119.057 374.5 105.5C363.511 93.3096 340 81.5 340 81.5H86C48.5 81.5 59 147 86 147Z" fill="#FFAE00"/>
<path d="M158.5 212.5H396V147H86C59 147 48.5 81.5 86 81.5H340C390.5 81.5 396 73.5 396 42.5C396 11.5 367.5 3 340 3H81.5002C22 3 3.20002 48.7 4.00002 113.5C5.00002 194.5 51.5 209.5 75 212.5H158.5Z" fill="white"/>
<path d="M123.5 231C143.1 231.8 155 219 158.5 212.5H75C79.5 218.667 95.5 231 123.5 231Z" fill="#FFAE00"/>
<path d="M63.5 298.5H262.5C295.5 300.5 368.4 286.1 396 212.5H158.5C155 219 143.1 231.8 123.5 231L63.5 298.5Z" fill="#FFAE00"/>
<path d="M396 212.5C368.4 286.1 295.5 300.5 262.5 298.5H63.5L123.5 231M396 212.5H158.5M396 212.5V147M158.5 212.5C155 219 143.1 231.8 123.5 231M158.5 212.5H75M123.5 231C95.5 231 79.5 218.667 75 212.5M75 212.5C51.5 209.5 5.00002 194.5 4.00002 113.5C3.20002 48.7 22 3 81.5002 3H340C367.5 3 396 11.5 396 42.5C396 73.5 390.5 81.5 340 81.5M396 147C396 147 113 147 86 147M396 147C396 147 386.721 119.057 374.5 105.5C363.511 93.3096 340 81.5 340 81.5M396 147H86M86 147C59 147 48.5 81.5 86 81.5M86 81.5C123.5 81.5 340 81.5 340 81.5M86 81.5H340" stroke="black" stroke-width="6"/>
</svg>
